<?xml version="1.0" encoding="UTF-8"?>
<svg version="1.1" xmlns="http://www.w3.org/2000/svg" width="64" height="64">
<path d="M0 0 C4.13340393 1.85891151 7.97605877 4.19520715 11.875 6.5 C13.47988281 7.38171875 13.47988281 7.38171875 15.1171875 8.28125 C22.64710196 12.73772998 22.64710196 12.73772998 23.69238281 16.4765625 C23.69506896 18.76158241 23.51002888 20.7765033 23 23 C21.68 23 20.36 23 19 23 C19 34.88 19 46.76 19 59 C3.16 59 -12.68 59 -29 59 C-29.66 57.68 -30.32 56.36 -31 55 C-32.98 55 -34.96 55 -37 55 C-37.36363636 47.60606061 -37.36363636 47.60606061 -35.875 45.125 C-33.38511749 43.63107049 -30.75287491 42.8976766 -28 42 C-26.768606 39.53721199 -26.92840804 37.7204945 -27 35 C-27.9075 34.79375 -28.815 34.5875 -29.75 34.375 C-33.97738892 32.5864893 -35.06986204 31.15722022 -37 27 C-37.8183578 22.71773117 -37.86032198 18.93753186 -36.0703125 14.90625 C-32.4253124 9.81619068 -28.2108392 9.09782699 -22.30078125 7.95703125 C-17.22687872 6.48589975 -13.2738997 3.5620043 -9.0078125 0.546875 C-5.29670037 -1.36169695 -3.99173658 -0.97729148 0 0 Z " fill="#20190C" transform="translate(39,3)"/>
<path d="M0 0 C1.08087891 -0.03673828 1.08087891 -0.03673828 2.18359375 -0.07421875 C5.8536445 -0.09449527 7.73482968 0.06018968 10.6328125 2.3984375 C11.12523437 3.05070312 11.61765625 3.70296875 12.125 4.375 C12.455 3.715 12.785 3.055 13.125 2.375 C17.745 2.375 22.365 2.375 27.125 2.375 C27.125 4.685 27.125 6.995 27.125 9.375 C26.465 9.375 25.805 9.375 25.125 9.375 C25.125 7.725 25.125 6.075 25.125 4.375 C21.825 4.375 18.525 4.375 15.125 4.375 C15.125 6.025 15.125 7.675 15.125 9.375 C15.785 9.375 16.445 9.375 17.125 9.375 C18.6033226 12.33164519 18.18532783 15.11729737 18.125 18.375 C17.135 18.375 16.145 18.375 15.125 18.375 C15.125 19.035 15.125 19.695 15.125 20.375 C18.425 20.375 21.725 20.375 25.125 20.375 C25.125 17.405 25.125 14.435 25.125 11.375 C25.785 11.375 26.445 11.375 27.125 11.375 C27.125 14.345 27.125 17.315 27.125 20.375 C28.115 20.375 29.105 20.375 30.125 20.375 C30.125 14.765 30.125 9.155 30.125 3.375 C30.785 3.375 31.445 3.375 32.125 3.375 C32.125 9.645 32.125 15.915 32.125 22.375 C16.285 22.375 0.445 22.375 -15.875 22.375 C-16.535 21.055 -17.195 19.735 -17.875 18.375 C-19.855 18.375 -21.835 18.375 -23.875 18.375 C-24.23863636 10.98106061 -24.23863636 10.98106061 -22.75 8.5 C-20.24909659 6.99945795 -17.64895645 6.26266607 -14.875 5.375 C-5.03717816 0.00891536 -5.03717816 0.00891536 0 0 Z " fill="#050401" transform="translate(25.875,39.625)"/>
<path d="M0 0 C3.32966372 2.7101914 4.57539867 4.19727163 5.0625 8.5 C4.61923057 12.85881604 3.48086237 14.85098383 0.6875 18.1875 C-2.72800511 20.77857284 -6.14575464 20.69038306 -10.3125 20.1875 C-13.8656042 18.14775499 -15.75005824 16.98731363 -16.9765625 13.0625 C-17.65102393 8.41969575 -17.57606607 4.40596403 -15.3125 0.1875 C-10.34351516 -2.9358619 -5.04825599 -2.76225328 0 0 Z " fill="#C28203" transform="translate(21.3125,15.8125)"/>
<path d="M0 0 C13.86 0 27.72 0 42 0 C42.72561336 3.62806679 43.11768417 5.73148597 42.87890625 9.20703125 C42.83056641 9.95791016 42.78222656 10.70878906 42.73242188 11.48242188 C42.67634766 12.25134766 42.62027344 13.02027344 42.5625 13.8125 C42.51029297 14.60076172 42.45808594 15.38902344 42.40429688 16.20117188 C42.27540731 18.13451529 42.13850506 20.06732164 42 22 C41.01 22 40.02 22 39 22 C39 19.03 39 16.06 39 13 C38.34 13 37.68 13 37 13 C37 15.97 37 18.94 37 22 C33.7 22 30.4 22 27 22 C27 21.34 27 20.68 27 20 C27.99 20 28.98 20 30 20 C29.67 17.03 29.34 14.06 29 11 C28.34 11 27.68 11 27 11 C27 9.35 27 7.7 27 6 C30.3 6 33.6 6 37 6 C37 7.65 37 9.3 37 11 C37.66 11 38.32 11 39 11 C39 8.69 39 6.38 39 4 C34.38 4 29.76 4 25 4 C24.67 5.32 24.34 6.64 24 8 C23.71125 7.360625 23.4225 6.72125 23.125 6.0625 C22.17176549 3.84793921 22.17176549 3.84793921 20 3 C17.37953265 2.82258767 14.80989117 2.72252749 12.1875 2.6875 C11.11918945 2.64399414 11.11918945 2.64399414 10.02929688 2.59960938 C6.19185707 2.5534607 4.2093338 2.85962961 0.98828125 5.01953125 C0.00408203 5.99986328 0.00408203 5.99986328 -1 7 C-0.67 4.69 -0.34 2.38 0 0 Z " fill="#CA8803" transform="translate(14,38)"/>
<path d="M0 0 C3.09347171 1.55256298 5.97382952 3.36669781 8.875 5.25 C9.65875 5.72824219 10.4425 6.20648438 11.25 6.69921875 C13.32427776 8.03268302 15.21519313 9.29785541 17 11 C17.5078125 13.859375 17.5078125 13.859375 17 16 C14.36 16 11.72 16 9 16 C9 13.36 9 10.72 9 8 C5.04 8 1.08 8 -3 8 C-3 10.64 -3 13.28 -3 16 C-5.97 16 -8.94 16 -12 16 C-11.96744792 13.78645833 -11.93489583 11.57291667 -11.90234375 9.359375 C-11.99614694 7.09308998 -12.36758937 5.1711105 -13 3 C-5.89505158 -1.68926596 -5.89505158 -1.68926596 0 0 Z " fill="#BD7F03" transform="translate(39,14)"/>
<path d="M0 0 C0.99 0.33 1.98 0.66 3 1 C2.67 2.98 2.34 4.96 2 7 C1.34 7 0.68 7 0 7 C-0.33 6.34 -0.66 5.68 -1 5 C-1.99 5.495 -1.99 5.495 -3 6 C-3 7.65 -3 9.3 -3 11 C-2.01 11.33 -1.02 11.66 0 12 C-1.65 12.66 -3.3 13.32 -5 14 C-4.67 16.31 -4.34 18.62 -4 21 C-4.66 20.01 -5.32 19.02 -6 18 C-10.34406198 13.18157294 -10.34406198 13.18157294 -16.375 11.875 C-19.18022266 11.97173182 -21.36035216 12.15531269 -24 13 C-23.67 12.01 -23.34 11.02 -23 10 C-20.6640625 9.296875 -20.6640625 9.296875 -17.625 8.75 C-11.54320091 7.41302147 -7.29253293 4.95143349 -2.27734375 1.328125 C-1.52582031 0.88984375 -0.77429688 0.4515625 0 0 Z " fill="#272623" transform="translate(31,3)"/>
<path d="M0 0 C3.3 0 6.6 0 10 0 C11.07931689 5.63643263 10.78769545 10.3110884 10 16 C6.7 16 3.4 16 0 16 C0 15.34 0 14.68 0 14 C0.99 14 1.98 14 3 14 C2.67 11.03 2.34 8.06 2 5 C1.34 5 0.68 5 0 5 C0 3.35 0 1.7 0 0 Z " fill="#F7F7F8" transform="translate(41,44)"/>
<path d="M0 0 C3.25 -0.375 3.25 -0.375 7 0 C9.70448323 3.12055757 11 4.83274304 11 9 C6.87505849 9.05784708 2.75022056 9.09354407 -1.375 9.125 C-2.550625 9.14175781 -3.72625 9.15851562 -4.9375 9.17578125 C-6.61972656 9.18544922 -6.61972656 9.18544922 -8.3359375 9.1953125 C-9.37282715 9.20578613 -10.4097168 9.21625977 -11.47802734 9.22705078 C-14 9 -14 9 -16 7 C-8.41 7 -0.82 7 7 7 C7 6.34 7 5.68 7 5 C4.69 5 2.38 5 0 5 C0 3.35 0 1.7 0 0 Z " fill="#C58506" transform="translate(27,42)"/>
<path d="M0 0 C2.9719385 1.12451727 5.33440687 2.22293791 8 4 C8.1875 6.625 8.1875 6.625 8 9 C5.36 9 2.72 9 0 9 C0 6.03 0 3.06 0 0 Z " fill="#C88703" transform="translate(48,21)"/>
<path d="M0 0 C7 2.6 7 2.6 10 5 C10.3125 8.1875 10.3125 8.1875 10 11 C8.68 10.67 7.36 10.34 6 10 C6 8.35 6 6.7 6 5 C5.34 5 4.68 5 4 5 C3.67 5.99 3.34 6.98 3 8 C2.01 7.34 1.02 6.68 0 6 C-0.1875 2.875 -0.1875 2.875 0 0 Z " fill="#E6E7E8" transform="translate(39,7)"/>
<path d="M0 0 C0.99 0.33 1.98 0.66 3 1 C3 2.98 3 4.96 3 7 C2.278125 7.103125 1.55625 7.20625 0.8125 7.3125 C-2.24491993 8.05986932 -4.38329635 9.28045189 -7 11 C-7 9.02 -7 7.04 -7 5 C-5.68 4.34 -4.36 3.68 -3 3 C-3 3.99 -3 4.98 -3 6 C-2.34 6 -1.68 6 -1 6 C-1.020625 5.195625 -1.04125 4.39125 -1.0625 3.5625 C-1 1 -1 1 0 0 Z " fill="#EEEFF0" transform="translate(34,4)"/>
<path d="M0 0 C2.64 0 5.28 0 8 0 C8 1.98 8 3.96 8 6 C5.36 6 2.72 6 0 6 C0 4.02 0 2.04 0 0 Z " fill="#FDFEFF" transform="translate(38,24)"/>
<path d="M0 0 C2.97 1.65 5.94 3.3 9 5 C9 6.65 9 8.3 9 10 C8.01 10 7.02 10 6 10 C6 8.68 6 7.36 6 6 C5.34 6 4.68 6 4 6 C4 6.66 4 7.32 4 8 C2.68 7.34 1.36 6.68 0 6 C0 4.02 0 2.04 0 0 Z " fill="#F2F3F4" transform="translate(51,14)"/>
<path d="M0 0 C2.31 0 4.62 0 7 0 C7.99 1.98 8.98 3.96 10 6 C6.7 5.67 3.4 5.34 0 5 C0 3.35 0 1.7 0 0 Z " fill="#F7F7F8" transform="translate(27,42)"/>
<path d="M0 0 C0.886875 0.103125 1.77375 0.20625 2.6875 0.3125 C2.6875 1.9625 2.6875 3.6125 2.6875 5.3125 C-0.9425 5.3125 -4.5725 5.3125 -8.3125 5.3125 C-4.12788462 0.38942308 -4.12788462 0.38942308 0 0 Z " fill="#F7F8F8" transform="translate(22.3125,41.6875)"/>
<path d="M0 0 C-1.46966358 3.39859703 -3.38037514 5.64963709 -6 8.25 C-6.70125 8.95640625 -7.4025 9.6628125 -8.125 10.390625 C-10 12 -10 12 -12 12 C-10.53033642 8.60140297 -8.61962486 6.35036291 -6 3.75 C-5.29875 3.04359375 -4.5975 2.3371875 -3.875 1.609375 C-2 0 -2 0 0 0 Z " fill="#191100" transform="translate(21,19)"/>
<path d="M0 0 C0 0.99 0 1.98 0 3 C-0.90492187 3.09087891 -0.90492187 3.09087891 -1.828125 3.18359375 C-3.02695312 3.30927734 -3.02695312 3.30927734 -4.25 3.4375 C-5.03890625 3.51871094 -5.8278125 3.59992187 -6.640625 3.68359375 C-8.82364639 3.97634993 -10.8773182 4.42064419 -13 5 C-12.67 4.01 -12.34 3.02 -12 2 C-10.37548581 1.66430703 -8.75037083 1.3315204 -7.125 1 C-6.22007813 0.814375 -5.31515625 0.62875 -4.3828125 0.4375 C-2 0 -2 0 0 0 Z " fill="#040200" transform="translate(20,11)"/>
<path d="M0 0 C1.65 0.33 3.3 0.66 5 1 C4.67 2.65 4.34 4.3 4 6 C2.35 5.67 0.7 5.34 -1 5 C-0.67 3.35 -0.34 1.7 0 0 Z " fill="#777879" transform="translate(31,54)"/>
<path d="M0 0 C1.65 0.33 3.3 0.66 5 1 C4.67 2.65 4.34 4.3 4 6 C2.35 5.67 0.7 5.34 -1 5 C-0.67 3.35 -0.34 1.7 0 0 Z " fill="#777879" transform="translate(11,54)"/>
<path d="M0 0 C1.65 0.33 3.3 0.66 5 1 C4.67 2.65 4.34 4.3 4 6 C2.35 5.67 0.7 5.34 -1 5 C-0.67 3.35 -0.34 1.7 0 0 Z " fill="#302000" transform="translate(17,26)"/>
<path d="M0 0 C0.33 0.99 0.66 1.98 1 3 C-5.435 3.495 -5.435 3.495 -12 4 C-10 1 -10 1 -8.125 0.48828125 C-7.42375 0.43027344 -6.7225 0.37226562 -6 0.3125 C-5.29875 0.24675781 -4.5975 0.18101563 -3.875 0.11328125 C-2.58513348 0.03535181 -1.29221849 0 0 0 Z " fill="#C58403" transform="translate(28,57)"/>
<path d="M0 0 C1.65 0 3.3 0 5 0 C5 1.65 5 3.3 5 5 C3.35 5 1.7 5 0 5 C0 3.35 0 1.7 0 0 Z " fill="#241800" transform="translate(9,19)"/>
<path d="M0 0 C1.32 0.33 2.64 0.66 4 1 C4 2.98 4 4.96 4 7 C2.68 6.67 1.36 6.34 0 6 C0 4.02 0 2.04 0 0 Z " fill="#EDEEEE" transform="translate(45,11)"/>
<path d="M0 0 C2.99324263 1.0975223 3.84610901 1.67682892 5.25 4.625 C5.4975 5.40875 5.745 6.1925 6 7 C5.01 7 4.02 7 3 7 C0 2.77777778 0 2.77777778 0 0 Z " fill="#221B0B" transform="translate(33,40)"/>
<path d="M0 0 C0.66 0 1.32 0 2 0 C2 1.65 2 3.3 2 5 C2.66 5.33 3.32 5.66 4 6 C3.01 6.495 3.01 6.495 2 7 C0.68 5.68 -0.64 4.36 -2 3 C-1.34 3 -0.68 3 0 3 C0 2.01 0 1.02 0 0 Z " fill="#0A0803" transform="translate(43,12)"/>
</svg>
