<?xml version="1.0" encoding="UTF-8"?>
<svg version="1.1" xmlns="http://www.w3.org/2000/svg" width="96" height="96">
<path d="M0 0 C4.06534322 1.76401427 7.43605913 4.45885311 10.9375 7.125 C11.62263672 7.64271973 12.30777344 8.16043945 13.01367188 8.69384766 C15.34566753 10.45836345 17.67325894 12.22856157 20 14 C21.32281982 15.00643555 21.32281982 15.00643555 22.67236328 16.03320312 C26.3300666 18.81695335 29.98709033 21.60157345 33.64038086 24.39111328 C38.74155357 28.28605642 43.85772964 32.1594566 49 36 C48.28839233 39.14364834 47.38003448 41.15995402 45.4375 43.75 C44.98246094 44.36359375 44.52742188 44.9771875 44.05859375 45.609375 C43.53458984 46.29773437 43.53458984 46.29773437 43 47 C39.125 46.125 39.125 46.125 38 45 C37.58130121 48.42269644 37.39533237 51.59282936 38 55 C39.57851688 56.70462429 41.18277293 57.64768194 43.17578125 58.828125 C46.40403824 60.90195176 47.95053639 63.4220042 49 67 C49.94656395 73.8399534 50.15421738 80.10650859 46.4375 86.125 C42.42910368 91.09615201 39.07562922 93.58126976 32.7578125 94.44140625 C25.42368129 94.81205589 20.55664988 94.08541955 14.671875 89.60546875 C13 88 13 88 11 85 C8.948375 84.52511301 8.948375 84.52511301 6.55029297 84.56762695 C5.62948944 84.54783279 4.70868591 84.52803864 3.75997925 84.50764465 C2.76410797 84.50125473 1.76823669 84.49486481 0.7421875 84.48828125 C-0.27600067 84.47033005 -1.29418884 84.45237885 -2.3432312 84.43388367 C-5.60377832 84.37958653 -8.86417748 84.34582262 -12.125 84.3125 C-14.33205193 84.27934408 -16.53908429 84.24485606 -18.74609375 84.20898438 C-24.16408609 84.12133439 -29.58139235 84.06143066 -35 84 C-35.33 71.13 -35.66 58.26 -36 45 C-36.66 45.66 -37.32 46.32 -38 47 C-41 47 -41 47 -42.640625 45.390625 C-43.17171875 44.68421875 -43.7028125 43.9778125 -44.25 43.25 C-44.79140625 42.55390625 -45.3328125 41.8578125 -45.890625 41.140625 C-47 39 -47 39 -46.82080078 37.07861328 C-45.73709497 34.33421373 -44.3379546 33.35708106 -41.9765625 31.6015625 C-40.70534546 30.64503784 -40.70534546 30.64503784 -39.40844727 29.66918945 C-38.03064087 28.65731567 -38.03064087 28.65731567 -36.625 27.625 C-35.687771 26.9239917 -34.75054199 26.2229834 -33.78491211 25.50073242 C-30.86526723 23.32185269 -27.93452211 21.15879098 -25 19 C-24.08976074 18.32888184 -23.17952148 17.65776367 -22.24169922 16.96630859 C-15.27485353 11.83129049 -15.27485353 11.83129049 -12.21923828 9.60595703 C-8.0167976 6.53725834 -3.95699552 3.38006432 0 0 Z " fill="#CC8A03" transform="translate(47,2)"/>
<path d="M0 0 C4.34009032 2.72517299 7.43224597 6.08936305 9 11 C9.96086517 17.83281901 10.14981013 24.11364526 6.4375 30.125 C2.42910368 35.09615201 -0.92437078 37.58126976 -7.2421875 38.44140625 C-14.26027496 38.79608379 -19.6186453 38.350607 -25.22265625 33.89453125 C-29.57138204 29.25907629 -31.18155839 24.21948447 -31.5 17.9375 C-31.20158349 11.92254218 -29.52877838 7.33543114 -25.05859375 3.20703125 C-17.20288731 -2.88367301 -9.35129095 -3.59665037 0 0 Z " fill="#0E0E0D" transform="translate(87,58)"/>
<path d="M0 0 C0.72631836 1.74316406 0.72631836 1.74316406 1 4 C-0.44702148 6.01464844 -0.44702148 6.01464844 -2.62109375 8.109375 C-3.39130859 8.86347656 -4.16152344 9.61757812 -4.95507812 10.39453125 C-5.77427734 11.17183594 -6.59347656 11.94914062 -7.4375 12.75 C-8.66049805 13.93916016 -8.66049805 13.93916016 -9.90820312 15.15234375 C-11.92810392 17.11318312 -13.95872128 19.0614649 -16 21 C-17.32 20.34 -18.64 19.68 -20 19 C-17.83672567 14.14752074 -14.28303716 10.95303699 -10.5625 7.25 C-9.88123047 6.55261719 -9.19996094 5.85523437 -8.49804688 5.13671875 C-7.51094727 4.14865234 -7.51094727 4.14865234 -6.50390625 3.140625 C-5.90392822 2.53766602 -5.3039502 1.93470703 -4.68579102 1.31347656 C-3 0 -3 0 0 0 Z " fill="#F0F0F0" transform="translate(86,65)"/>
<path d="M0 0 C1.67542976 0.28604898 3.34385343 0.61781233 5 1 C4.67 2.65 4.34 4.3 4 6 C2.68 6 1.36 6 0 6 C-0.38218767 4.34385343 -0.71395102 2.67542976 -1 1 C-0.67 0.67 -0.34 0.34 0 0 Z " fill="#DFDFDF" transform="translate(65,64)"/>
<path d="M0 0 C1.67542976 0.28604898 3.34385343 0.61781233 5 1 C4.67 2.32 4.34 3.64 4 5 C2.68 5.33 1.36 5.66 0 6 C-0.38218767 4.34385343 -0.71395102 2.67542976 -1 1 C-0.67 0.67 -0.34 0.34 0 0 Z " fill="#E2E2E2" transform="translate(83,82)"/>
</svg>
