<?xml version="1.0" encoding="UTF-8"?>
<svg version="1.1" xmlns="http://www.w3.org/2000/svg" width="96" height="96">
<path d="M0 0 C7.92 0 15.84 0 24 0 C24 6.6 24 13.2 24 20 C25.98 20 27.96 20 30 20 C29.98839844 19.07316406 29.97679687 18.14632813 29.96484375 17.19140625 C29.95582031 15.99386719 29.94679687 14.79632813 29.9375 13.5625 C29.92589844 12.36753906 29.91429687 11.17257813 29.90234375 9.94140625 C30 7 30 7 31 6 C32.76859193 5.90053547 34.54111451 5.86919783 36.3125 5.8671875 C37.38757812 5.86589844 38.46265625 5.86460938 39.5703125 5.86328125 C40.70210937 5.86714844 41.83390625 5.87101563 43 5.875 C44.13179687 5.87113281 45.26359375 5.86726562 46.4296875 5.86328125 C47.50476563 5.86457031 48.57984375 5.86585937 49.6875 5.8671875 C50.68136719 5.86831543 51.67523438 5.86944336 52.69921875 5.87060547 C55 6 55 6 56 7 C56.07258946 9.18639453 56.08373783 11.37500389 56.0625 13.5625 C56.05347656 14.76003906 56.04445313 15.95757812 56.03515625 17.19140625 C56.02355469 18.11824219 56.01195313 19.04507812 56 20 C56.94875 20.103125 57.8975 20.20625 58.875 20.3125 C62 21 62 21 64 24 C64.26742554 26.15611267 64.26742554 26.15611267 64.29052734 28.68334961 C64.30328705 29.63120834 64.31604675 30.57906708 64.32919312 31.5556488 C64.33141876 32.57755814 64.33364441 33.59946747 64.3359375 34.65234375 C64.3459227 36.22986168 64.3459227 36.22986168 64.35610962 37.83924866 C64.36623846 40.06428273 64.37092657 42.28934719 64.37060547 44.5144043 C64.37497871 47.92091835 64.41129727 51.32613713 64.44921875 54.73242188 C64.45508677 56.89322473 64.45905626 59.05403375 64.4609375 61.21484375 C64.47530853 62.23472885 64.48967957 63.25461395 64.50448608 64.30540466 C64.49833282 65.25641556 64.49217957 66.20742645 64.48583984 67.18725586 C64.48868988 68.02203964 64.49153992 68.85682343 64.49447632 69.71690369 C63.79678938 72.93826416 62.65397158 74.07251174 60 76 C56.96435547 76.50793457 56.96435547 76.50793457 53.3671875 76.51757812 C52.70978577 76.5245874 52.05238403 76.53159668 51.37506104 76.53881836 C49.20794083 76.55638431 47.04213284 76.54478235 44.875 76.53125 C43.36572011 76.53394536 41.85644192 76.53782815 40.34716797 76.54284668 C37.18635501 76.54873976 34.02599466 76.5401855 30.86523438 76.52148438 C26.81631443 76.49869419 22.76845502 76.5118184 18.71957397 76.53577423 C15.60367867 76.55023778 12.48803426 76.54562383 9.37213135 76.53526306 C7.8794136 76.53259728 6.38667296 76.53586038 4.89398193 76.54518127 C2.80631296 76.55535695 0.72035426 76.53983569 -1.3671875 76.51757812 C-3.14778564 76.51280457 -3.14778564 76.51280457 -4.96435547 76.50793457 C-8.65412886 75.89054889 -9.84176713 75.02491327 -12 72 C-12.50793457 69.72363281 -12.50793457 69.72363281 -12.51757812 67.203125 C-12.53649109 65.7814502 -12.53649109 65.7814502 -12.55578613 64.33105469 C-12.54768921 63.31430664 -12.53959229 62.29755859 -12.53125 61.25 C-12.5350769 60.19973633 -12.53890381 59.14947266 -12.54284668 58.06738281 C-12.54556696 55.84829753 -12.53819777 53.62918026 -12.52148438 51.41015625 C-12.50007745 48.01229405 -12.52128325 44.61654639 -12.546875 41.21875 C-12.54423175 39.06249533 -12.53910682 36.90624198 -12.53125 34.75 C-12.53934692 33.73325195 -12.54744385 32.71650391 -12.55578613 31.66894531 C-12.46453329 24.80953063 -12.46453329 24.80953063 -10.46679688 21.328125 C-8 20 -8 20 0 20 C0 13.4 0 6.8 0 0 Z " fill="#CC8904" transform="translate(22,10)"/>
<path d="M0 0 C25.08 0 50.16 0 76 0 C76 8 76 8 74.41455078 10.46765137 C71.23443582 12.48585072 69.12674332 12.50749923 65.3671875 12.51757812 C64.70978577 12.5245874 64.05238403 12.53159668 63.37506104 12.53881836 C61.20794083 12.55638431 59.04213284 12.54478235 56.875 12.53125 C55.36572011 12.53394536 53.85644192 12.53782815 52.34716797 12.54284668 C49.18635501 12.54873976 46.02599466 12.5401855 42.86523438 12.52148438 C38.81631443 12.49869419 34.76845502 12.5118184 30.71957397 12.53577423 C27.60367867 12.55023778 24.48803426 12.54562383 21.37213135 12.53526306 C19.8794136 12.53259728 18.38667296 12.53586038 16.89398193 12.54518127 C14.80631296 12.55535695 12.72035426 12.53983569 10.6328125 12.51757812 C8.85221436 12.51280457 8.85221436 12.51280457 7.03564453 12.50793457 C4 12 4 12 1.58544922 10.46765137 C0 8 0 8 0 0 Z " fill="#34303A" transform="translate(10,74)"/>
<path d="M0 0 C7.92 0 15.84 0 24 0 C24 9.24 24 18.48 24 28 C16.08 28 8.16 28 0 28 C0 18.76 0 9.52 0 0 Z " fill="#B9D1E5" transform="translate(22,10)"/>
<path d="M0 0 C1.07507812 -0.00128906 2.15015625 -0.00257812 3.2578125 -0.00390625 C4.38960937 -0.00003906 5.52140625 0.00382813 6.6875 0.0078125 C7.81929687 0.00394531 8.95109375 0.00007812 10.1171875 -0.00390625 C11.19226563 -0.00261719 12.26734375 -0.00132813 13.375 0 C14.86580078 0.00169189 14.86580078 0.00169189 16.38671875 0.00341797 C18.6875 0.1328125 18.6875 0.1328125 19.6875 1.1328125 C19.81403198 3.62519819 19.87269825 6.07751691 19.875 8.5703125 C19.88724609 9.26447266 19.89949219 9.95863281 19.91210938 10.67382812 C19.91739842 12.49502151 19.80919207 14.3156817 19.6875 16.1328125 C17.15695663 18.66335587 16.25201118 18.38964479 12.75 18.3984375 C11.77289063 18.40101562 10.79578125 18.40359375 9.7890625 18.40625 C8.76554687 18.39851563 7.74203125 18.39078125 6.6875 18.3828125 C5.66398437 18.39054687 4.64046875 18.39828125 3.5859375 18.40625 C2.60882813 18.40367188 1.63171875 18.40109375 0.625 18.3984375 C-0.27347656 18.39618164 -1.17195313 18.39392578 -2.09765625 18.39160156 C-4.3125 18.1328125 -4.3125 18.1328125 -6.3125 16.1328125 C-6.48413731 13.56988933 -6.54514558 11.12935393 -6.5 8.5703125 C-6.49935547 7.87228516 -6.49871094 7.17425781 -6.49804688 6.45507812 C-6.44378464 0.23903795 -6.08190398 0.00690229 0 0 Z " fill="#35313A" transform="translate(58.3125,15.8671875)"/>
<path d="M0 0 C5.94 0 11.88 0 18 0 C18 3.3 18 6.6 18 10 C12.06 10 6.12 10 0 10 C0 6.7 0 3.4 0 0 Z " fill="#8DB39A" transform="translate(56,20)"/>
<path d="M0 0 C7.92 0 15.84 0 24 0 C24 1.32 24 2.64 24 4 C16.08 4 8.16 4 0 4 C0 2.68 0 1.36 0 0 Z " fill="#35313B" transform="translate(22,38)"/>
<path d="M0 0 C2.64 0 5.28 0 8 0 C8 2.64 8 5.28 8 8 C5.36 8 2.72 8 0 8 C0 5.36 0 2.72 0 0 Z " fill="#121212" transform="translate(68,58)"/>
<path d="M0 0 C2.64 0 5.28 0 8 0 C8 2.64 8 5.28 8 8 C5.36 8 2.72 8 0 8 C0 5.36 0 2.72 0 0 Z " fill="#121212" transform="translate(56,58)"/>
<path d="M0 0 C2.64 0 5.28 0 8 0 C8 2.64 8 5.28 8 8 C5.36 8 2.72 8 0 8 C0 5.36 0 2.72 0 0 Z " fill="#121212" transform="translate(44,58)"/>
<path d="M0 0 C2.64 0 5.28 0 8 0 C8 2.64 8 5.28 8 8 C5.36 8 2.72 8 0 8 C0 5.36 0 2.72 0 0 Z " fill="#121212" transform="translate(32,58)"/>
<path d="M0 0 C2.64 0 5.28 0 8 0 C8 2.64 8 5.28 8 8 C5.36 8 2.72 8 0 8 C0 5.36 0 2.72 0 0 Z " fill="#121212" transform="translate(20,58)"/>
<path d="M0 0 C2.64 0 5.28 0 8 0 C8 2.64 8 5.28 8 8 C5.36 8 2.72 8 0 8 C0 5.36 0 2.72 0 0 Z " fill="#121212" transform="translate(68,46)"/>
<path d="M0 0 C2.64 0 5.28 0 8 0 C8 2.64 8 5.28 8 8 C5.36 8 2.72 8 0 8 C0 5.36 0 2.72 0 0 Z " fill="#121212" transform="translate(56,46)"/>
<path d="M0 0 C2.64 0 5.28 0 8 0 C8 2.64 8 5.28 8 8 C5.36 8 2.72 8 0 8 C0 5.36 0 2.72 0 0 Z " fill="#121212" transform="translate(44,46)"/>
<path d="M0 0 C2.64 0 5.28 0 8 0 C8 2.64 8 5.28 8 8 C5.36 8 2.72 8 0 8 C0 5.36 0 2.72 0 0 Z " fill="#121212" transform="translate(32,46)"/>
<path d="M0 0 C2.64 0 5.28 0 8 0 C8 2.64 8 5.28 8 8 C5.36 8 2.72 8 0 8 C0 5.36 0 2.72 0 0 Z " fill="#121212" transform="translate(20,46)"/>
<path d="M0 0 C1.65 0.33 3.3 0.66 5 1 C4.67 2.65 4.34 4.3 4 6 C2.35 5.67 0.7 5.34 -1 5 C-0.67 3.35 -0.34 1.7 0 0 Z " fill="#171617" transform="translate(46,77)"/>
</svg>
