<?xml version="1.0" encoding="UTF-8"?>
<svg version="1.1" xmlns="http://www.w3.org/2000/svg" width="96" height="96">
<path d="M0 0 C0.27560214 6.20104812 -0.77100654 11.93184478 -2 18 C-3.890625 18.58984375 -3.890625 18.58984375 -6 19 C-7.75 17.5625 -7.75 17.5625 -9 16 C-13.32504836 17.65863505 -16.09418825 20.871041 -19.25 24.125 C-19.80429687 24.68832031 -20.35859375 25.25164063 -20.9296875 25.83203125 C-22.29104485 27.21686028 -23.64614859 28.60783204 -25 30 C-23.5162085 30.029729 -23.5162085 30.029729 -22.00244141 30.06005859 C-18.33827923 30.13603456 -14.67451836 30.22476352 -11.01074219 30.31738281 C-9.42390862 30.35570585 -7.83698719 30.39055288 -6.25 30.421875 C-3.97103434 30.46745431 -1.69267532 30.52545838 0.5859375 30.5859375 C1.29744965 30.59748871 2.00896179 30.60903992 2.74203491 30.62094116 C7.77225659 30.77225659 7.77225659 30.77225659 10 33 C10.25396729 34.9354248 10.25396729 34.9354248 10.25878906 37.32617188 C10.26509338 38.22049927 10.27139771 39.11482666 10.27789307 40.03625488 C10.2738446 41.00397827 10.26979614 41.97170166 10.265625 42.96875 C10.26753845 43.95999878 10.2694519 44.95124756 10.27142334 45.97253418 C10.27278585 48.07072198 10.26908482 50.16891819 10.26074219 52.26708984 C10.25004371 55.48684546 10.26063536 58.70604308 10.2734375 61.92578125 C10.27211592 63.96093874 10.26955355 65.99609588 10.265625 68.03125 C10.26967346 68.99897339 10.27372192 69.96669678 10.27789307 70.96374512 C10.26843658 72.30523621 10.26843658 72.30523621 10.25878906 73.67382812 C10.25719788 74.46277466 10.25560669 75.25172119 10.25396729 76.0645752 C10 78 10 78 8 80 C4.95689392 80.24723816 4.95689392 80.24723816 0.99584961 80.24291992 C-0.08482536 80.24576744 -0.08482536 80.24576744 -1.18733215 80.24867249 C-3.57421673 80.25238425 -5.96079861 80.24167146 -8.34765625 80.23046875 C-10.00150008 80.22927717 -11.6553446 80.22882374 -13.30918884 80.2290802 C-16.77688833 80.2275147 -20.24448466 80.21921931 -23.7121582 80.20581055 C-28.16689611 80.18880734 -32.62152071 80.18499654 -37.07628727 80.18575573 C-40.4913797 80.1854844 -43.90644715 80.18000946 -47.3215313 80.17275429 C-48.964653 80.16956256 -50.60777754 80.16759904 -52.25090218 80.16686058 C-54.54239905 80.16470308 -56.83377339 80.15597215 -59.12524414 80.14526367 C-61.08476768 80.13954597 -61.08476768 80.13954597 -63.08387756 80.13371277 C-66 80 -66 80 -67 79 C-67.09822744 77.53194708 -67.1279837 76.0592254 -67.12939453 74.58789062 C-67.13412277 73.18138245 -67.13412277 73.18138245 -67.13894653 71.74645996 C-67.1369223 70.72669067 -67.13489807 69.70692139 -67.1328125 68.65625 C-67.13376923 67.61682251 -67.13472595 66.57739502 -67.13571167 65.50646973 C-67.13639363 63.30395446 -67.13453827 61.10143721 -67.13037109 58.89892578 C-67.12502308 55.51460281 -67.13031559 52.13041256 -67.13671875 48.74609375 C-67.13605797 46.61197887 -67.13477681 44.47786408 -67.1328125 42.34375 C-67.13483673 41.32398071 -67.13686096 40.30421143 -67.13894653 39.25354004 C-67.13579437 38.31586792 -67.13264221 37.3781958 -67.12939453 36.41210938 C-67.12859894 35.58239624 -67.12780334 34.75268311 -67.12698364 33.89782715 C-67 32 -67 32 -66 31 C-63.62661361 30.84028023 -61.27881728 30.7407567 -58.90234375 30.68359375 C-58.19348526 30.66281265 -57.48462677 30.64203156 -56.75428772 30.62062073 C-54.48212695 30.55505402 -52.20984736 30.4962077 -49.9375 30.4375 C-48.40037817 30.39432151 -46.8632685 30.35070745 -45.32617188 30.30664062 C-41.5509041 30.19936551 -37.7755164 30.09811863 -34 30 C-34.60062256 29.42032471 -35.20124512 28.84064941 -35.82006836 28.2434082 C-38.051479 26.08031708 -40.27363237 23.90824009 -42.48999023 21.72973633 C-43.92065096 20.32899666 -45.36164475 18.93883618 -46.80273438 17.54882812 C-47.70185547 16.66259766 -48.60097656 15.77636719 -49.52734375 14.86328125 C-50.35999756 14.05157471 -51.19265137 13.23986816 -52.05053711 12.40356445 C-54.14839123 9.817043 -54.86373011 8.31334495 -55 5 C-54.34 4.34 -53.68 3.68 -53 3 C-48.58528446 3.2308558 -46.58527992 4.93744584 -43.57421875 8.03515625 C-42.77822266 8.84404297 -41.98222656 9.65292969 -41.16210938 10.48632812 C-40.34548828 11.33646484 -39.52886719 12.18660156 -38.6875 13.0625 C-37.85154297 13.91650391 -37.01558594 14.77050781 -36.15429688 15.65039062 C-34.09357656 17.75821312 -32.04276791 19.87479849 -30 22 C-24.63108837 17.47694451 -24.63108837 17.47694451 -19.5625 12.625 C-18.716875 11.75875 -17.87125 10.8925 -17 10 C-17.5259375 9.13375 -17.5259375 9.13375 -18.0625 8.25 C-19.16577711 5.60213494 -18.80156509 4.66814674 -18 2 C-15.37638987 1.47109454 -12.75151775 0.95157912 -10.125 0.4375 C-9.37863281 0.28603516 -8.63226563 0.13457031 -7.86328125 -0.02148438 C-2.2265625 -1.11328125 -2.2265625 -1.11328125 0 0 Z M-61 39 C-61.10082764 41.43660446 -61.13972603 43.84424701 -61.1328125 46.28125 C-61.13376923 47.00993286 -61.13472595 47.73861572 -61.13571167 48.48937988 C-61.13639335 50.0327971 -61.13453988 51.57621717 -61.13037109 53.11962891 C-61.12502262 55.489974 -61.13031642 57.86012959 -61.13671875 60.23046875 C-61.13605797 61.72656292 -61.1347768 63.22265697 -61.1328125 64.71875 C-61.13483673 65.43228638 -61.13686096 66.14582275 -61.13894653 66.88098145 C-61.41648651 70.22486429 -61.41648651 70.22486429 -60 73 C-58.03630847 73.0940067 -56.06920801 73.11743381 -54.10327148 73.11352539 C-52.21142372 73.11341209 -52.21142372 73.11341209 -50.28135681 73.11329651 C-48.89460206 73.1081891 -47.50784771 73.10297309 -46.12109375 73.09765625 C-44.71004791 73.09579201 -43.29900143 73.09436814 -41.88795471 73.09336853 C-38.16759465 73.08954379 -34.4472734 73.0797139 -30.72692871 73.06866455 C-26.26660209 73.05665461 -21.80626252 73.05204798 -17.34592438 73.04621124 C-10.56392256 73.0365021 -3.78200597 73.01734528 3 73 C3 61.45 3 49.9 3 38 C-8.17284902 37.97093445 -8.17284902 37.97093445 -19.34570312 37.95117188 C-23.89983275 37.94518427 -28.45394235 37.93808617 -33.00805664 37.92456055 C-36.67792544 37.9137288 -40.34777278 37.90772256 -44.01765633 37.90512276 C-45.42074992 37.90326903 -46.82384229 37.8996494 -48.2269268 37.89426994 C-50.1856968 37.88705581 -52.1444882 37.88659191 -54.10327148 37.88647461 C-55.22023911 37.884254 -56.33720673 37.88203339 -57.48802185 37.87974548 C-59.93905414 37.71489224 -59.93905414 37.71489224 -61 39 Z " fill="#CD8903" transform="translate(76,9)"/>
<path d="M0 0 C9.57 0 19.14 0 29 0 C27.35 1.32 25.7 2.64 24 4 C20.99675639 9.28156635 20.09469545 14.04940268 21 20 C21.90591424 23.03506861 22.98613257 25.53998348 25 28 C27.87247408 29.57623538 27.87247408 29.57623538 31 29 C33.61955544 26.84614331 35.47973297 25.04053406 37 22 C37.91720218 13.33879206 37.91720218 13.33879206 35.1875 5.375 C33.50058717 3.54349464 31.76069401 1.76069401 30 0 C39.57 0 49.14 0 59 0 C59 10.23 59 20.46 59 31 C39.53 31 20.06 31 0 31 C0 20.77 0 10.54 0 0 Z " fill="#CD8A03" transform="translate(18,49)"/>
<path d="M0 0 C2.9375 0.0625 2.9375 0.0625 6 1 C8.94774802 4.80376852 9.40829159 7.75040053 9.375 12.5 C9.38273437 13.6034375 9.39046875 14.706875 9.3984375 15.84375 C8.95753858 19.33636105 8.15952376 21.23641364 6 24 C2.8125 24.8125 2.8125 24.8125 0 25 C-4.18748576 20.00203312 -5.28905722 16.68435526 -5.2265625 10.2890625 C-4.8033799 6.01345895 -2.985667 2.985667 0 0 Z " fill="#CC8A03" transform="translate(45,52)"/>
</svg>
