<?xml version="1.0" encoding="UTF-8"?>
<svg version="1.1" xmlns="http://www.w3.org/2000/svg" width="100" height="100">
<path d="M0 0 C2.22472804 2.22472804 2.51650296 2.95820692 2.875 6 C2.76128449 9.40605027 2.24109007 10.72145905 -0.01171875 13.32421875 C-2.59483437 15.50383514 -5.21050874 17.54082145 -7.94873047 19.51806641 C-10.25876295 21.18694252 -12.53737794 22.89451483 -14.81640625 24.60546875 C-18.83883852 27.61016316 -22.86536771 30.60716486 -26.95605469 33.51855469 C-28.66447144 34.75680993 -30.31344532 36.07653741 -31.9453125 37.4140625 C-37.21588668 40.15044756 -42.15810122 39.77349372 -47.81298828 38.234375 C-50.76119991 37.22613163 -53.66194817 36.13792358 -56.5625 35 C-66.48035461 31.04330299 -66.48035461 31.04330299 -77 31 C-79.72043938 32.19511762 -79.72043938 32.19511762 -81.8125 34 C-85.625 37 -85.625 37 -90 37 C-90 27.43 -90 17.86 -90 8 C-78.88291335 2.49064732 -68.89920714 -2.26966978 -56.42773438 1.84960938 C-47.33661886 5.28374443 -38.66469737 9.62247039 -30 14 C-29.95745644 15.99954746 -29.95919217 18.00041636 -30 20 C-31 21 -31 21 -33.87890625 21.25 C-39.11436614 21.17507392 -43.96560086 19.50890172 -48.9375 18 C-49.90751953 17.71382812 -50.87753906 17.42765625 -51.87695312 17.1328125 C-54.25393652 16.43025583 -56.62799658 15.71915599 -59 15 C-59.33 15.66 -59.66 16.32 -60 17 C-59.24976562 17.18175781 -58.49953125 17.36351563 -57.7265625 17.55078125 C-52.65974175 18.79515159 -47.65256153 20.08093155 -42.6875 21.6875 C-38.67530809 22.9066387 -35.22218313 23.51700202 -31 23 C-28.93597315 22.01951062 -28.93597315 22.01951062 -28 20 C-27.71399811 16.56797729 -27.90809958 14.27570125 -29 11 C-25.92235899 9.01187252 -22.83697248 7.03610142 -19.75 5.0625 C-18.87730469 4.49853516 -18.00460938 3.93457031 -17.10546875 3.35351562 C-16.26113281 2.81533203 -15.41679688 2.27714844 -14.546875 1.72265625 C-13.77182617 1.22515869 -12.99677734 0.72766113 -12.19824219 0.21508789 C-7.51495663 -2.37361848 -4.95445742 -2.04640633 0 0 Z " fill="#CD8A03" transform="translate(94,53)"/>
<path d="M0 0 C3 1 3 1 5 4 C6.88164336 3.96639923 8.76328996 3.93030629 10.64453125 3.87890625 C15.25410943 4.11588291 19.16399841 5.43824115 23 8 C25.34439652 11.09087104 26.61917027 14.3950481 28 18 C28.4640625 19.01449219 28.928125 20.02898438 29.40625 21.07421875 C34.19512582 31.67625772 34.19512582 31.67625772 33 37 C30.21825369 40.63172435 28.63587295 41.72511971 24.140625 42.48046875 C19.41924737 42.69774608 15.20488107 42.77183144 11.25 39.9375 C8.37892334 36.18914991 8.56367887 34.65725382 9 30 C9.9429024 27.11625554 11.18815845 24.42008115 12.5 21.6875 C14.97916665 17.0269239 14.97916665 17.0269239 16 12 C12.86501708 10.14223235 10.62528568 9.79859524 7 10 C4.23303886 14.70930988 3.53637008 18.65954351 3.48828125 24.0234375 C3.47033005 24.76961334 3.45237885 25.51578918 3.43388367 26.28457642 C3.38006895 28.6479949 3.34597933 31.01121486 3.3125 33.375 C3.27930128 34.98570454 3.24480928 36.59638298 3.20898438 38.20703125 C3.12435982 42.13787687 3.05741257 46.06866659 3 50 C1.68 50 0.36 50 -1 50 C-1.01458252 49.00145996 -1.02916504 48.00291992 -1.04418945 46.97412109 C-1.10240068 43.25013394 -1.17963077 39.52673708 -1.26245117 35.80322266 C-1.29559363 34.1952476 -1.32365854 32.58715919 -1.34643555 30.97900391 C-1.38017967 28.65999295 -1.43250194 26.34201069 -1.48828125 24.0234375 C-1.49467117 23.31069672 -1.5010611 22.59795593 -1.50764465 21.86361694 C-1.64308866 17.20890509 -2.64692314 14.00488751 -5 10 C-9.64586892 10.48484276 -9.64586892 10.48484276 -14 12 C-12.53427607 16.69697895 -10.95704178 21.19091184 -8.8125 25.625 C-7.02926293 29.60779408 -6.1529636 32.59541073 -7 37 C-9.78174631 40.63172435 -11.36412705 41.72511971 -15.859375 42.48046875 C-20.58075263 42.69774608 -24.79511893 42.77183144 -28.75 39.9375 C-31.02970625 36.96121684 -31.45361323 35.77460386 -31.32519531 32.12475586 C-30.63343516 27.60494457 -28.77849657 23.4963403 -27 19.3125 C-26.63777344 18.37599609 -26.27554687 17.43949219 -25.90234375 16.47460938 C-23.94924049 11.83681671 -22.46814325 8.75134441 -17.875 6.41796875 C-16.59898622 5.90455319 -15.30740546 5.42719747 -14 5 C-13.01 4.67 -12.02 4.34 -11 4 C-9.66553076 4.02959508 -8.33153206 4.09419188 -7 4.1875 C-4.91180549 4.28005058 -4.91180549 4.28005058 -3 4 C-0.94729537 2.15811388 -0.94729537 2.15811388 0 0 Z M-20 18 C-22.475 23.94 -22.475 23.94 -25 30 C-21.04 30 -17.08 30 -13 30 C-14.65 26.04 -16.3 22.08 -18 18 C-18.66 18 -19.32 18 -20 18 Z M20 18 C17.525 23.94 17.525 23.94 15 30 C18.96 30 22.92 30 27 30 C25.35 26.04 23.7 22.08 22 18 C21.34 18 20.68 18 20 18 Z " fill="#CD8A03" transform="translate(51,6)"/>
</svg>
