<?xml version="1.0" encoding="UTF-8"?>
<svg version="1.1" xmlns="http://www.w3.org/2000/svg" width="64" height="64">
<path d="M0 0 C4.03418686 2.05738158 7.13437112 3.96102462 9.99609375 7.49609375 C11.31080201 12.56711131 11.6260949 17.65008382 11.87109375 22.87109375 C8.57109375 22.87109375 5.27109375 22.87109375 1.87109375 22.87109375 C1.21109375 20.56109375 0.55109375 18.25109375 -0.12890625 15.87109375 C-1.28390625 16.36609375 -2.43890625 16.86109375 -3.62890625 17.37109375 C-7.98173517 19.02672332 -11.50412658 19.1188498 -16.12890625 18.87109375 C-16.23203125 19.48984375 -16.33515625 20.10859375 -16.44140625 20.74609375 C-17.12890625 22.87109375 -17.12890625 22.87109375 -20.12890625 24.87109375 C-19.69578125 25.26296875 -19.26265625 25.65484375 -18.81640625 26.05859375 C-16.8651595 28.1543773 -15.56022587 30.3988144 -14.12890625 32.87109375 C-13.79890625 33.20109375 -13.46890625 33.53109375 -13.12890625 33.87109375 C-12.98775464 36.54168226 -13.08643518 39.19541613 -13.12890625 41.87109375 C-19.57685194 39.84459653 -22.88585903 35.58503409 -26.12890625 29.87109375 C-26.78890625 29.21109375 -27.44890625 28.55109375 -28.12890625 27.87109375 C-28.19103012 25.06664482 -28.12655654 22.41006646 -27.94140625 19.62109375 C-27.90982422 18.86957031 -27.87824219 18.11804688 -27.84570312 17.34375 C-27.51460073 11.84457114 -26.46537195 7.43268765 -22.62890625 3.2265625 C-15.84862531 -2.052875 -8.14932298 -2.94026759 0 0 Z " fill="#CD8A03" transform="translate(40.12890625,11.12890625)"/>
<path d="M0 0 C1.15757813 -0.00257812 2.31515625 -0.00515625 3.5078125 -0.0078125 C4.72210938 -0.00007813 5.93640625 0.00765625 7.1875 0.015625 C8.40179688 0.00789063 9.61609375 0.00015625 10.8671875 -0.0078125 C12.60355469 -0.00394531 12.60355469 -0.00394531 14.375 0 C15.44105469 0.00225586 16.50710937 0.00451172 17.60546875 0.00683594 C20.1875 0.265625 20.1875 0.265625 22.1875 2.265625 C22.38602102 4.97485301 22.46589477 7.55865679 22.4375 10.265625 C22.44523437 11.00296875 22.45296875 11.7403125 22.4609375 12.5 C22.4408196 18.0123054 22.4408196 18.0123054 20.1875 20.265625 C17.60546875 20.52441406 17.60546875 20.52441406 14.375 20.53125 C13.21742187 20.53382812 12.05984375 20.53640625 10.8671875 20.5390625 C9.65289062 20.53132813 8.43859375 20.52359375 7.1875 20.515625 C5.97320312 20.52335937 4.75890625 20.53109375 3.5078125 20.5390625 C1.77144531 20.53519531 1.77144531 20.53519531 0 20.53125 C-1.59908203 20.52786621 -1.59908203 20.52786621 -3.23046875 20.52441406 C-5.8125 20.265625 -5.8125 20.265625 -7.8125 18.265625 C-8.01102102 15.55639699 -8.09089477 12.97259321 -8.0625 10.265625 C-8.07023437 9.52828125 -8.07796875 8.7909375 -8.0859375 8.03125 C-8.06075501 1.13124706 -6.71496995 0.01420943 0 0 Z M6.1875 7.265625 C5.8575 8.915625 5.5275 10.565625 5.1875 12.265625 C6.5075 12.265625 7.8275 12.265625 9.1875 12.265625 C8.8575 10.615625 8.5275 8.965625 8.1875 7.265625 C7.5275 7.265625 6.8675 7.265625 6.1875 7.265625 Z " fill="#CC8A03" transform="translate(36.8125,35.734375)"/>
</svg>
